<?xml version="1.0" standalone="no"?>
<!DOCTYPE svg PUBLIC "-//W3C//DTD SVG 20010904//EN"
 "http://www.w3.org/TR/2001/REC-SVG-20010904/DTD/svg10.dtd">
<svg version="1.0" xmlns="http://www.w3.org/2000/svg"
 width="1707.000000pt" height="1707.000000pt" viewBox="0 0 1707.000000 1707.000000"
 preserveAspectRatio="xMidYMid meet">
<metadata>
Created by potrace 1.11, written by Peter Selinger 2001-2013
</metadata>
<g transform="translate(0.000000,1707.000000) scale(0.100000,-0.100000)"
fill="#000000" stroke="none">
<path d="M3478 17065 c-2 -1 -26 -5 -54 -9 -148 -17 -418 -145 -585 -276 -217
-171 -363 -358 -435 -555 -28 -77 -52 -109 -209 -275 -71 -76 -199 -246 -268
-357 -31 -51 -57 -96 -57 -100 0 -3 -6 -14 -13 -22 -19 -23 -111 -225 -152
-334 -33 -87 -92 -276 -100 -319 -2 -11 -6 -27 -9 -36 -3 -9 -8 -35 -12 -57
-3 -22 -7 -42 -9 -45 -2 -3 -11 -48 -20 -100 -9 -52 -18 -106 -20 -119 -2 -14
-7 -54 -11 -90 -3 -36 -7 -72 -9 -81 -10 -50 -19 -263 -19 -440 0 -296 12
-455 59 -780 107 -749 411 -1613 833 -2370 162 -291 429 -695 571 -866 15 -16
37 -45 51 -63 31 -41 65 -82 155 -186 130 -149 212 -233 532 -541 l64 -61 -7
-89 c-14 -178 -8 -572 11 -684 2 -14 7 -47 10 -75 14 -100 14 -98 45 -235 41
-184 73 -285 147 -465 30 -72 102 -217 131 -265 12 -19 25 -42 29 -50 12 -26
104 -162 167 -245 33 -44 121 -141 195 -215 385 -384 875 -625 1436 -706 17
-3 42 -6 57 -9 60 -8 65 -13 83 -83 9 -37 19 -78 21 -92 2 -14 7 -36 10 -50
16 -68 31 -213 28 -280 -7 -210 -90 -371 -285 -555 -196 -185 -390 -297 -906
-521 -18 -8 -48 -21 -65 -29 -18 -8 -224 -91 -458 -186 -503 -202 -671 -276
-842 -368 -273 -149 -492 -318 -660 -509 -143 -164 -271 -439 -306 -657 -4
-22 -6 -161 -6 -310 0 -270 0 -270 31 -386 39 -147 127 -390 210 -584 302
-700 659 -1117 1078 -1260 48 -17 152 -41 215 -51 79 -12 297 -6 379 11 223
44 418 129 653 283 328 217 589 460 1012 942 65 74 130 149 145 165 47 52 412
489 536 640 245 300 789 958 881 1065 321 376 365 425 529 605 335 366 747
773 1010 995 553 469 1079 770 1605 918 236 67 321 77 645 77 275 -1 407 -12
610 -51 11 -2 34 -7 50 -10 40 -7 191 -42 235 -54 202 -57 273 -79 385 -120
375 -138 683 -320 895 -530 108 -107 136 -140 202 -243 131 -202 190 -435 164
-647 -11 -86 -28 -170 -36 -175 -4 -2 -54 24 -111 58 -187 111 -469 222 -662
262 -10 2 -27 7 -37 10 -10 3 -27 7 -37 10 -10 2 -74 15 -143 28 -69 14 -145
28 -170 32 -52 6 -118 16 -142 20 -66 13 -271 20 -553 20 -432 0 -547 -9 -830
-67 -55 -11 -111 -22 -125 -24 -14 -3 -33 -7 -42 -10 -9 -3 -27 -7 -40 -9 -55
-11 -250 -70 -338 -103 -463 -172 -737 -411 -797 -696 -18 -86 -13 -210 12
-281 37 -108 83 -178 190 -293 33 -35 61 -67 63 -72 2 -4 -12 -11 -30 -15 -35
-8 -254 -88 -302 -111 -16 -8 -33 -14 -39 -14 -9 0 -278 -132 -342 -169 -195
-110 -419 -299 -524 -444 -237 -325 -230 -690 19 -1012 50 -65 144 -161 206
-211 27 -21 58 -47 69 -57 94 -85 406 -256 632 -346 194 -77 575 -193 712
-216 19 -3 38 -8 41 -10 4 -3 25 -7 45 -11 21 -3 47 -8 59 -10 51 -11 301 -55
334 -58 21 -2 55 -7 77 -11 67 -10 99 -14 161 -20 32 -3 73 -8 89 -10 284 -39
1003 -51 1275 -21 19 3 71 7 115 11 44 3 116 10 160 16 44 5 96 11 115 14 19
2 64 8 100 14 36 5 83 12 105 16 94 14 132 21 320 60 66 14 131 28 145 31 142
28 486 136 670 209 121 47 339 152 364 173 10 10 20 15 23 13 8 -6 222 139
296 201 277 234 408 471 410 739 0 131 -19 209 -84 344 -70 147 -174 273 -339
412 -58 48 -243 173 -258 173 -5 0 -12 3 -14 8 -11 26 -397 201 -584 265 -52
18 -94 37 -94 42 0 6 20 40 44 76 179 267 364 656 400 841 2 13 9 46 16 73 6
28 14 68 16 89 3 22 7 42 9 46 6 9 19 190 19 260 -1 132 -15 254 -48 409 -11
52 -58 184 -95 269 -118 273 -360 575 -619 772 -18 14 -43 33 -55 44 -39 33
-240 163 -324 209 -405 223 -902 382 -1458 466 -38 6 -86 13 -105 16 -175 26
-785 26 -935 0 -202 -36 -416 -91 -595 -153 -380 -133 -701 -305 -1144 -612
-169 -118 -547 -427 -721 -591 -33 -31 -73 -69 -90 -83 -155 -140 -582 -580
-796 -821 -41 -47 -102 -114 -124 -139 -5 -6 -35 -40 -65 -76 -30 -36 -59 -70
-65 -76 -5 -6 -32 -37 -60 -69 -27 -32 -54 -63 -60 -69 -24 -27 -497 -593
-614 -735 -20 -24 -59 -72 -87 -105 -27 -34 -126 -153 -220 -266 -93 -113
-176 -214 -186 -225 -9 -11 -69 -83 -133 -160 -65 -77 -131 -156 -149 -175
-17 -20 -62 -71 -101 -115 -38 -44 -74 -85 -80 -91 -147 -166 -507 -532 -644
-654 -46 -41 -89 -80 -95 -85 -6 -6 -66 -54 -134 -106 -385 -301 -671 -370
-879 -215 -82 61 -209 190 -283 285 -169 220 -458 857 -514 1132 -32 160 -37
341 -11 420 110 336 452 595 1175 890 80 33 154 64 165 68 58 25 111 47 340
135 138 54 259 102 270 106 29 13 123 53 175 75 25 11 126 60 225 109 345 172
599 346 767 524 205 218 359 541 396 832 15 116 7 465 -13 575 -18 101 -19 93
22 101 398 68 888 303 1193 570 91 80 245 239 310 320 220 275 399 613 500
944 17 58 34 114 38 125 3 11 7 22 7 25 2 7 24 109 31 140 28 131 46 261 59
435 4 50 8 90 9 90 6 0 269 139 334 177 46 26 85 48 87 48 7 0 251 154 340
213 103 70 393 285 446 331 19 17 49 42 65 55 233 192 545 502 786 781 453
527 851 1174 1079 1755 22 55 44 109 49 120 20 44 112 333 144 453 34 128 81
334 92 406 3 21 7 46 9 55 1 9 6 41 10 71 4 30 9 64 11 75 18 84 24 540 11
710 -32 400 -159 805 -363 1163 -76 131 -76 133 -80 215 -8 160 -52 318 -132
467 -203 380 -537 666 -804 687 -111 9 -185 -31 -234 -128 -22 -45 -24 -57
-21 -181 4 -154 22 -222 108 -392 109 -215 294 -444 454 -562 22 -16 46 -34
52 -41 7 -6 59 -35 115 -63 57 -29 112 -59 122 -68 51 -45 189 -303 255 -477
60 -159 114 -375 135 -540 30 -234 27 -577 -8 -812 -9 -54 -18 -116 -21 -138
-4 -22 -13 -68 -20 -101 -8 -34 -16 -73 -19 -85 -6 -36 -34 -141 -68 -259
-144 -501 -432 -1085 -778 -1579 -111 -158 -200 -274 -329 -429 -169 -203
-434 -484 -584 -618 -49 -44 -201 -177 -228 -199 -180 -150 -356 -281 -543
-404 -76 -50 -140 -91 -141 -91 -2 0 -50 -28 -107 -61 -113 -68 -357 -192
-456 -233 -34 -15 -96 -33 -136 -41 -105 -20 -185 -77 -230 -163 -19 -38 -42
-140 -51 -227 -6 -61 -16 -127 -40 -265 -42 -240 -105 -433 -205 -637 -190
-384 -459 -657 -827 -842 -56 -28 -105 -51 -108 -51 -4 0 -21 -6 -38 -14 -60
-26 -210 -73 -267 -83 -14 -2 -41 -8 -60 -13 -34 -9 -60 -13 -170 -26 -108
-13 -390 -7 -540 11 -253 31 -569 152 -782 301 -46 31 -85 60 -88 63 -3 3 -25
22 -50 42 -220 178 -418 451 -528 729 -27 68 -77 223 -87 267 -53 251 -58 302
-60 688 -1 304 -2 322 -22 360 -43 81 -156 166 -238 179 -27 5 -63 24 -105 57
-157 121 -468 432 -620 619 -25 30 -48 57 -51 60 -28 25 -275 356 -334 449 -6
9 -33 50 -60 91 -28 41 -54 83 -60 92 -5 9 -42 70 -82 135 -283 468 -537 1047
-702 1603 -37 127 -113 428 -125 495 -2 17 -9 55 -15 85 -6 30 -13 66 -16 80
-13 69 -45 295 -51 365 -3 44 -8 83 -10 86 -5 9 -17 325 -17 441 1 96 10 282
18 363 7 78 17 160 20 165 1 3 6 32 10 65 3 32 8 62 10 65 2 3 6 22 9 44 11
66 56 237 88 331 108 319 278 605 499 838 l36 39 109 4 c158 6 203 11 280 35
216 66 434 206 634 408 141 142 231 287 270 439 45 172 -28 325 -176 368 -46
13 -197 27 -206 19z"/>
</g>
</svg>
